<svg xmlns="http://www.w3.org/2000/svg" viewBox="0 0 64 64" width="64" height="64"><title>rice</title><g class="nc-icon-wrapper" stroke-linecap="square" stroke-linejoin="miter" stroke-width="2" fill="#fd1015" stroke="#fd1015"><line x1="50.224" y1="19.108" x2="60" y2="2" fill="none" stroke-miterlimit="10" data-cap="butt" data-color="color-2" stroke-linecap="butt"/> <line x1="43.61" y1="20.5" x2="48" y2="4" fill="none" stroke-miterlimit="10" data-cap="butt" data-color="color-2" stroke-linecap="butt"/> <circle cx="13.5" cy="11.5" r="1.5" fill="#fd1015" data-cap="butt" data-stroke="none" stroke="none" stroke-linecap="butt"/> <circle cx="26.5" cy="24.5" r="1.5" fill="#fd1015" data-cap="butt" data-stroke="none" stroke="none" stroke-linecap="butt"/> <circle cx="33.5" cy="8.5" r="1.5" fill="#fd1015" data-cap="butt" data-stroke="none" stroke="none" stroke-linecap="butt"/> <path d="M19.394,57H44.606A27.993,27.993,0,0,0,60,32H4A27.993,27.993,0,0,0,19.394,57Z" fill="none" stroke="#fd1015" stroke-miterlimit="10"/> <path d="M56,26a7,7,0,0,0-12.009-4.885A7.984,7.984,0,0,0,32.147,18.65,7,7,0,0,0,19.19,20.4,6.991,6.991,0,0,0,8,26" fill="none" stroke-miterlimit="10" data-color="color-2"/></g></svg>